<?xml version="1.0" encoding="UTF-8" standalone="no"?>
<svg
   viewBox="0 0 448 448"
   version="1.1"
   id="svg1"
   sodipodi:docname="facebook.svg"
   inkscape:version="1.4.2 (f4327f4, 2025-05-13)"
   width="448"
   height="448"
   xmlns:inkscape="http://www.inkscape.org/namespaces/inkscape"
   xmlns:sodipodi="http://sodipodi.sourceforge.net/DTD/sodipodi-0.dtd"
   xmlns="http://www.w3.org/2000/svg"
   xmlns:svg="http://www.w3.org/2000/svg">
  <defs
     id="defs1" />
  <sodipodi:namedview
     id="namedview1"
     pagecolor="#ffffff"
     bordercolor="#000000"
     borderopacity="0.25"
     inkscape:showpageshadow="2"
     inkscape:pageopacity="0.0"
     inkscape:pagecheckerboard="0"
     inkscape:deskcolor="#d1d1d1"
     inkscape:zoom="0.57226563"
     inkscape:cx="320.65529"
     inkscape:cy="325.02389"
     inkscape:window-width="1440"
     inkscape:window-height="830"
     inkscape:window-x="-6"
     inkscape:window-y="-6"
     inkscape:window-maximized="1"
     inkscape:current-layer="svg1" />
  <!--!Font Awesome Free 7.1.0 by @fontawesome - https://fontawesome.com License - https://fontawesome.com/license/free Copyright 2025 Fonticons, Inc.-->
  <path
     d="M 448,224.83435 C 448,100.6485 347.725,0 224,0 100.275,0 0,100.6485 0,224.83435 0,330.22545 72.3625,418.75397 169.925,443.08175 V 293.51421 h -46.2 v -68.67986 h 46.2 v -29.59734 c 0,-76.49637 34.475,-111.978041 109.375,-111.978041 14.175,0 38.675,2.810429 48.7375,5.620858 v 62.180753 c -5.25,-0.52696 -14.4375,-0.87826 -25.9,-0.87826 -36.75,0 -50.925,13.96432 -50.925,50.23642 v 24.41561 h 73.15 l -12.6,68.67986 H 251.125 V 448 C 362.075,434.56263 448,339.79847 448,224.83435 Z"
     id="path1"
     style="fill:#eee;fill-opacity:1;" />
</svg>
